<mxfile host="app.diagrams.net" modified="2024-03-24T12:39:55.292Z" agent="Mozilla/5.0 (Windows NT 10.0; Win64; x64) AppleWebKit/537.36 (KHTML, like Gecko) Chrome/117.0.0.0 Safari/537.36 Edg/117.0.2045.43" etag="TPYBSUs3Axxh8eU46jid" version="24.1.0" type="github">
  <diagram name="PÃ¡gina-1" id="-3uwRKFnb6UO1q1akV4z">
    <mxGraphModel dx="567" dy="316" grid="1" gridSize="10" guides="1" tooltips="1" connect="1" arrows="1" fold="1" page="1" pageScale="1" pageWidth="827" pageHeight="1169" math="0" shadow="0">
      <root>
        <mxCell id="0" />
        <mxCell id="1" parent="0" />
        <mxCell id="zOPVeQiGUVaZpvcF2_19-6" style="edgeStyle=orthogonalEdgeStyle;rounded=0;orthogonalLoop=1;jettySize=auto;html=1;entryX=0;entryY=0.5;entryDx=0;entryDy=0;" parent="1" source="zOPVeQiGUVaZpvcF2_19-1" edge="1">
          <mxGeometry relative="1" as="geometry">
            <mxPoint x="170" y="330" as="targetPoint" />
          </mxGeometry>
        </mxCell>
        <mxCell id="zOPVeQiGUVaZpvcF2_19-1" value="Cliente" style="shape=umlActor;verticalLabelPosition=bottom;verticalAlign=top;html=1;outlineConnect=0;" parent="1" vertex="1">
          <mxGeometry x="70" y="300" width="30" height="60" as="geometry" />
        </mxCell>
        <mxCell id="VktPG5qHKFbXA4fqlOZ--6" style="edgeStyle=orthogonalEdgeStyle;rounded=0;orthogonalLoop=1;jettySize=auto;html=1;entryX=0;entryY=0.5;entryDx=0;entryDy=0;" edge="1" parent="1" source="VktPG5qHKFbXA4fqlOZ--4" target="VktPG5qHKFbXA4fqlOZ--5">
          <mxGeometry relative="1" as="geometry" />
        </mxCell>
        <mxCell id="VktPG5qHKFbXA4fqlOZ--9" style="edgeStyle=orthogonalEdgeStyle;rounded=0;orthogonalLoop=1;jettySize=auto;html=1;exitX=0.5;exitY=1;exitDx=0;exitDy=0;entryX=0.5;entryY=0;entryDx=0;entryDy=0;" edge="1" parent="1" source="VktPG5qHKFbXA4fqlOZ--4" target="VktPG5qHKFbXA4fqlOZ--8">
          <mxGeometry relative="1" as="geometry" />
        </mxCell>
        <mxCell id="VktPG5qHKFbXA4fqlOZ--4" value="CONTROLADOR" style="rounded=0;whiteSpace=wrap;html=1;" vertex="1" parent="1">
          <mxGeometry x="180" y="300" width="120" height="60" as="geometry" />
        </mxCell>
        <mxCell id="VktPG5qHKFbXA4fqlOZ--7" style="edgeStyle=orthogonalEdgeStyle;rounded=0;orthogonalLoop=1;jettySize=auto;html=1;exitX=0;exitY=0.75;exitDx=0;exitDy=0;entryX=1;entryY=0.75;entryDx=0;entryDy=0;" edge="1" parent="1" source="VktPG5qHKFbXA4fqlOZ--5" target="VktPG5qHKFbXA4fqlOZ--4">
          <mxGeometry relative="1" as="geometry" />
        </mxCell>
        <mxCell id="VktPG5qHKFbXA4fqlOZ--5" value="MODELO" style="rounded=0;whiteSpace=wrap;html=1;" vertex="1" parent="1">
          <mxGeometry x="350" y="300" width="120" height="60" as="geometry" />
        </mxCell>
        <mxCell id="VktPG5qHKFbXA4fqlOZ--10" style="edgeStyle=orthogonalEdgeStyle;rounded=0;orthogonalLoop=1;jettySize=auto;html=1;" edge="1" parent="1" source="VktPG5qHKFbXA4fqlOZ--8" target="zOPVeQiGUVaZpvcF2_19-1">
          <mxGeometry relative="1" as="geometry" />
        </mxCell>
        <mxCell id="VktPG5qHKFbXA4fqlOZ--8" value="VISTA" style="rounded=0;whiteSpace=wrap;html=1;" vertex="1" parent="1">
          <mxGeometry x="180" y="380" width="120" height="60" as="geometry" />
        </mxCell>
      </root>
    </mxGraphModel>
  </diagram>
</mxfile>
